<svg xmlns="http://www.w3.org/2000/svg" viewBox="0 0 32 32" width="32" height="32">
  <path fill="#C45C26" d="M6 2h14l8 8v20a2 2 0 0 1-2 2H6a2 2 0 0 1-2-2V4a2 2 0 0 1 2-2z"/>
  <path fill="#A0481C" d="M20 2l8 8h-6a2 2 0 0 1-2-2V2z"/>
  <path fill="#F0D4A8" d="M10 11h4v2h-4zm5 0h4v2h-4zm5 0h3v2h-3zM10 14h4v2h-4zm5 0h4v2h-4zm5 0h3v2h-3z"/>
  <rect x="5" y="18" width="22" height="10" rx="1.5" fill="#1a1a1a"/>
  <text x="16" y="26" text-anchor="middle" font-family="Arial,Helvetica,sans-serif" font-size="7.5" font-weight="700" fill="#E88A4A">RAR</text>
</svg>
